<?xml version="1.0" encoding="utf-8"?>
<!-- Generator: Adobe Illustrator 25.4.1, SVG Export Plug-In . SVG Version: 6.00 Build 0)  -->
<svg version="1.1" id="레이어_1" xmlns="http://www.w3.org/2000/svg" xmlns:xlink="http://www.w3.org/1999/xlink" x="0px"
	 y="0px" viewBox="0 0 200 43" style="enable-background:new 0 0 200 43;" xml:space="preserve">
<style type="text/css">
	.st0{fill:#FFFFFF;}
</style>
<g>
	<path class="st0" d="M13.2,31.4v2.8h11.3V37H13.2v3h13.5v2.8H4.8V28.6h21.8v2.8C26.6,31.4,13.2,31.4,13.2,31.4z"/>
	<path class="st0" d="M37.7,28.6v11.3H51v2.8H29.2V28.6C29.2,28.6,37.7,28.6,37.7,28.6z"/>
	<path class="st0" d="M62.3,31.4v2.8h11.3V37H62.3v3h13.3v2.8H53.8V28.6h21.8v2.8C75.6,31.4,62.3,31.4,62.3,31.4z"/>
	<path class="st0" d="M104.2,37c-0.4,2-1.8,3.6-3.8,4.4c-0.4,0.2-1,0.4-1.6,0.4c-2.4,0.6-5,1-7.7,1c-2.6,0-5.2-0.4-7.7-1
		c-0.6,0-1-0.2-1.6-0.4c-2.2-1-3.8-3.2-3.8-5.8s1.6-4.8,3.8-5.8c0.4-0.2,1-0.4,1.6-0.4c2.4-0.6,5-1,7.7-1c2.6,0,5.2,0.4,7.7,1
		c0.6,0,1,0.2,1.6,0.4c1.8,0.8,3.2,2.4,3.8,4.4H95c-0.2-1-0.8-2-1.6-2.6c-0.6-0.4-1.4-0.6-2-0.6c-0.8,0-1.4,0.2-2,0.6
		c-1,1-1.8,2.2-1.8,3.6c0,0.2,0,0.2,0,0.4l0,0l0,0c0,1.6,0.8,3,1.8,4c0.6,0.4,1.4,0.6,2,0.6c0.8,0,1.4-0.2,2-0.6
		c0.8-0.6,1.4-1.6,1.6-2.6L104.2,37L104.2,37z"/>
	<path class="st0" d="M112.1,42.7V31.4h-6.3v-2.8h21v2.8h-6.3v11.3H112.1z"/>
	<path class="st0" d="M151.4,37c2.4,0,4.2-2,4.2-4.2c0-2.4-2-4.2-4.2-4.2h-21.8v14.1h8.5v-5.6h1l6.7,5.6h9.9l-6.7-5.6L151.4,37
		L151.4,37z M147.4,34.2L147.4,34.2L147.4,34.2h-9.3v-2.8h7.5l0,0h1.6l0,0c0.6,0.2,1.2,0.6,1.2,1.4C148.6,33.6,148,34.2,147.4,34.2z
		"/>
	<path class="st0" d="M166.6,42.7h-8.5V28.6h8.5V42.7z"/>
	<path class="st0" d="M178.5,35.6L178.5,35.6L178.5,35.6c0,1.6,0.8,3,1.8,4c0.6,0.4,1.4,0.6,2,0.6c0.8,0,1.4-0.2,2-0.6
		c0.8-0.6,1.4-1.6,1.6-2.6h9.3c-0.4,2-1.8,3.6-3.8,4.4c-0.4,0.2-1,0.4-1.6,0.4c-2.4,0.6-5,1-7.7,1c-2.6,0-5.2-0.4-7.7-1
		c-0.6,0-1-0.2-1.6-0.4c-2.2-1-3.8-3.2-3.8-5.8s1.6-4.8,3.8-5.8c0.4-0.2,1-0.4,1.6-0.4c2.4-0.6,5-1,7.7-1c2.6,0,5.2,0.4,7.7,1
		c0.6,0,1,0.2,1.6,0.4c1.8,0.8,3.2,2.4,3.8,4.4h-9.1c-0.2-1-0.8-2-1.6-2.6c-0.6-0.4-1.4-0.6-2-0.6c-0.8,0-1.4,0.2-2,0.6
		c-1,1-1.8,2.2-1.8,3.6C178.5,35.4,178.5,35.6,178.5,35.6z"/>
	<rect x="3.6" y="25.3" class="st0" width="192.7" height="2"/>
	<path class="st0" d="M64.9,4.8v4.6h18.4v4.8H64.9v4.6h22v4.6H51v-23h35.9v4.6H64.9z"/>
	<path class="st0" d="M91.7,0.3h13.9v23.2H91.7V0.3z"/>
	<path class="st0" d="M153.5,0.3l-14.7,8.5l14.7,14.7h-17.3l-8.3-8.3l-3.2,1.8v6.3h-13.9v-23h13.9v7.9l13.9-7.9
		C138.5,0.3,153.5,0.3,153.5,0.3z"/>
	<path class="st0" d="M153.5,11.8c0,4.2,2.6,7.9,6.3,9.3c0.8,0.4,1.6,0.6,2.6,0.6c4,1,8.3,1.4,12.5,1.4c4.4,0,8.5-0.6,12.5-1.4
		c0.8-0.2,1.8-0.4,2.6-0.6c3.8-1.6,6.3-5.2,6.3-9.3s-2.6-7.9-6.3-9.3c-0.8-0.4-1.6-0.6-2.6-0.6c-4-1-8.1-1.6-12.5-1.6
		c-4.4,0-8.5,0.6-12.5,1.4c-0.8,0.2-1.8,0.4-2.6,0.6C156.1,4.1,153.5,7.6,153.5,11.8z M168.6,11.8L168.6,11.8c0-0.2,0-0.4,0-0.6
		c0.2-2.4,1.2-4.6,3-5.9c1-0.6,2.2-1,3.4-1s2.4,0.4,3.4,1c1.8,1.4,2.8,3.6,3,5.9c0,0.2,0,0.4,0,0.6l0,0l0,0c0,2.6-1.2,5-3,6.5
		c-1,0.6-2.2,1-3.4,1c-1.2,0-2.4-0.4-3.4-1C169.8,16.7,168.6,14.6,168.6,11.8L168.6,11.8z"/>
	<path class="st0" d="M4,9.6C3.8,8.8,3.6,8,3.6,7.2S3.8,5.6,4,4.8c1-2.6,3.6-4.6,6.5-4.6h34.7v4.6H19.9c-1.2,0-2.4,1-2.4,2.4
		c0,1.2,1,2.4,2.4,2.4h19.6c3,0,5.6,2,6.5,4.6c0.2,0.8,0.4,1.6,0.4,2.4c0,0.8-0.2,1.6-0.4,2.4c-1,2.8-3.6,4.6-6.5,4.6H4.8v-4.8h25.4
		l0,0c1.2,0,2.4-1,2.4-2.4c0-1.2-1-2.2-2.4-2.2H10.6C7.6,14.2,5,12.2,4,9.6z"/>
</g>
</svg>
